<svg width="44" height="44" viewBox="0 0 44 44" fill="none" xmlns="http://www.w3.org/2000/svg">
<circle cx="22" cy="22" r="22" fill="#2C2858"/>
<path fill-rule="evenodd" clip-rule="evenodd" d="M22 33.9166C28.6084 33.9166 33.9167 28.6082 33.9167 21.9999C33.9167 18.1976 32.1593 14.8257 29.4081 12.6477C29.2625 12.5324 29.1141 12.4205 28.963 12.312C27.0077 10.908 24.6048 10.0833 22 10.0833C15.3917 10.0833 10.0834 15.3916 10.0834 21.9999C10.0834 23.8237 10.4877 25.5484 11.212 27.0899C11.2791 27.2327 11.3489 27.3738 11.4214 27.5134C13.4029 31.3269 17.3843 33.9166 22 33.9166ZM14.2 20.8082C14.2 20.8708 14.2362 20.9333 14.3084 21.0584C14.3612 21.15 14.4335 21.2751 14.525 21.4583C14.7417 21.7832 15.0667 22.3249 15.2834 22.7582C15.6084 23.2999 16.15 23.8416 16.9084 24.0582C17.775 24.2749 18.5334 23.9499 19.2917 23.5166C20.05 23.0832 20.7 22.4333 20.8084 21.5666C20.9039 20.8976 20.4936 20.3129 20.2469 19.9612C20.2139 19.9143 20.1839 19.8715 20.1584 19.8333C19.5084 19.0749 19.2917 18.7499 19.5084 18.3166C19.6167 17.9916 19.725 17.8833 19.8334 17.7749C19.9593 17.712 20.1218 17.6856 20.3209 17.6533C20.4644 17.63 20.6269 17.6036 20.8084 17.5583C20.8742 17.5363 20.9533 17.5144 21.0421 17.4898C21.3921 17.3927 21.893 17.2539 22.325 16.9083C22.975 16.4749 23.3 15.8249 23.3 14.9583C23.4084 14.3083 23.3 13.6583 22.8667 13.1166C22.5599 12.733 22.1444 12.4581 21.7356 12.2534C21.8235 12.2511 21.9116 12.2499 22 12.2499C23.7151 12.2499 25.3215 12.6843 26.7162 13.45C25.7258 14.433 24.9843 15.2764 24.4917 15.9333C24.1667 16.4749 23.8417 17.0166 23.8417 17.5583C23.8417 18.3054 24.205 18.6798 24.7084 19.1832C25.1417 19.3999 25.6834 19.6166 26.1167 19.6166C26.3489 19.6166 26.5812 19.5855 26.7967 19.5566C26.9834 19.5316 27.1575 19.5083 27.3084 19.5083C27.85 19.2916 28.175 19.1833 28.7167 19.2916C28.8436 19.2916 28.8962 19.3288 28.9397 19.3596C28.9705 19.3813 28.9968 19.3999 29.0417 19.3999V19.7249V19.8091C28.4527 19.7594 27.2184 19.6638 26.1167 19.8333C25.4667 19.9416 24.6 20.1582 24.0584 20.6999C23.3 21.2416 22.8667 22.1082 22.975 23.0833C23.1917 24.9249 24.1667 25.8999 24.925 26.5499C25.1789 26.8038 25.3955 26.9832 25.575 27.1319C25.702 27.2371 25.8103 27.3268 25.9 27.4166L26.0084 27.6332C26.0084 27.9583 25.9 28.3916 25.6834 29.1499C25.3936 29.8261 25.0177 30.5884 24.4788 31.4369C23.8529 31.5987 23.2019 31.7005 22.5322 31.7359C22.6786 31.226 22.7584 30.7163 22.7584 30.2332C22.7584 29.6916 22.5417 29.2582 22.2167 28.9332C22.0756 28.7921 21.8028 28.653 21.5146 28.506C21.0215 28.2545 20.4834 27.98 20.4834 27.6332C20.4834 27.4166 20.4834 27.3082 20.375 27.0916C20.375 26.7666 20.1584 26.2249 19.8334 25.7916C19.5084 25.3582 19.075 25.0332 18.5334 24.8166C16.676 24.0206 14.6263 24.7434 12.8591 25.4222C12.465 24.3591 12.25 23.2064 12.25 21.9999C12.25 21.6447 12.2687 21.294 12.305 20.949C13.4239 20.5495 13.9268 20.7172 14.2 20.8082ZM17.45 21.8916C17.45 21.8916 17.6667 21.9999 18.2084 21.6749C18.3851 21.5571 18.4977 21.4633 18.5681 21.3936C18.5338 21.3544 18.4874 21.304 18.425 21.2416C18.3748 21.1579 18.3014 21.0562 18.2155 20.9372C17.745 20.2855 16.9004 19.1155 17.45 17.5583C17.775 16.6916 18.2084 16.1499 18.8584 15.8249C19.1997 15.6884 19.584 15.5949 19.9029 15.5173C20.0901 15.4717 20.2548 15.4317 20.375 15.3916C20.4757 15.3664 20.5589 15.3471 20.6286 15.3309C20.8587 15.2774 20.9419 15.2581 21.025 15.1749C21.025 15.1749 21.1334 15.1749 21.2417 14.7416C21.2417 14.5249 21.1334 14.4166 21.1334 14.4166C21.1334 14.3083 20.9167 14.1999 20.4834 14.0916C19.749 13.7768 18.405 13.7669 16.4514 13.9634C14.8128 15.0918 13.5426 16.7105 12.8456 18.6142C13.7683 18.474 14.6504 18.5807 15.3917 19.0749C15.9334 19.5083 16.2584 20.0499 16.475 20.4833C16.6684 20.741 16.785 20.9605 16.8934 21.1644C16.9673 21.3033 17.0373 21.4349 17.125 21.5666C17.3417 21.8916 17.45 21.8916 17.45 21.8916ZM13.875 27.4166C15.9334 26.5499 17.0167 26.5499 17.6667 26.7666C18.2433 27.0549 18.425 27.6631 18.425 28.2832C18.425 28.6082 18.5334 29.0416 18.9667 29.4749C19.1022 29.6782 20.265 30.2332 20.5917 30.2332C20.5917 30.6198 20.4814 31.0615 20.2607 31.5977C19.2268 31.4143 18.224 31.0633 17.3024 30.5599C15.9191 29.8043 14.7435 28.723 13.875 27.4166ZM26.225 17.4499C26.3334 17.4499 26.4417 17.4499 26.6584 17.3416C26.7594 17.3214 26.8717 17.2937 26.9946 17.2633C27.5308 17.1309 28.2687 16.9486 29.15 17.1249C29.9084 17.3416 30.3417 17.6666 30.775 18.2083C31.1 18.6416 31.2084 19.1832 31.2084 19.7249C31.2084 20.1582 31.1 20.6999 30.8834 21.1332C30.6667 21.4583 30.125 21.9999 29.3667 21.9999C29.1776 21.9999 28.9517 21.9816 28.6972 21.9609C28.077 21.9105 27.2866 21.8463 26.4417 21.9999C25.9 22.1082 25.575 22.2166 25.3584 22.4332C25.25 22.5416 25.1417 22.6499 25.1417 22.8666C25.25 23.8416 25.6834 24.3832 26.4417 24.9249C26.5717 25.1199 26.8187 25.3149 27.0657 25.5099C27.2304 25.6399 27.395 25.7699 27.525 25.8999C27.85 26.3333 28.175 26.8749 28.175 27.6332C28.175 28.376 27.9672 29.1188 27.6532 29.9634C30.1388 28.203 31.75 25.3028 31.75 21.9999C31.75 19.122 30.5268 16.5499 28.5678 14.7711C27.3772 15.7916 26.6843 16.5903 26.225 17.2333C26.1689 17.3174 26.1273 17.3871 26.0965 17.4441C26.1432 17.4499 26.1841 17.4499 26.225 17.4499Z" fill="#00B976"/>
</svg>
