<svg width="68" height="68" viewBox="0 0 68 68" fill="none" xmlns="http://www.w3.org/2000/svg">
<path d="M0 10C0 4.47715 4.47715 0 10 0H58C63.5228 0 68 4.47715 68 10V48C68 59.0457 59.0457 68 48 68H10C4.47715 68 0 63.5228 0 58V10Z" fill="#6694FB"/>
<path fill-rule="evenodd" clip-rule="evenodd" d="M18.4167 16.8579C17.556 16.8579 16.8583 17.5556 16.8583 18.4162V43.3496C16.8583 44.2102 17.556 44.9079 18.4167 44.9079H29.5078L30.1135 49.7531C30.1209 49.8213 30.133 49.8892 30.1496 49.9565C30.3226 50.6614 30.9654 51.1562 31.6928 51.1412H49.5834C50.444 51.1412 51.1417 50.4436 51.1417 49.5829V24.6496C51.1417 23.7889 50.444 23.0912 49.5834 23.0912H36.1548L35.5463 18.223C35.4488 17.4431 34.7859 16.8579 34 16.8579H18.4167ZM36.934 29.3246L37.3236 32.4412H42.5708C43.4315 32.4412 44.1292 31.7436 44.1292 30.8829C44.1292 30.0223 43.4315 29.3246 42.5708 29.3246H36.934ZM37.7132 35.5579L38.1028 38.6746H42.5708C43.4315 38.6746 44.1292 37.9769 44.1292 37.1162C44.1292 36.2556 43.4315 35.5579 42.5708 35.5579H37.7132ZM33.6825 44.9079H32.6487L32.778 45.9417L33.6825 44.9079ZM21.5333 24.6496C21.5333 23.7889 22.231 23.0912 23.0917 23.0912H28.5458C29.4065 23.0912 30.1042 23.7889 30.1042 24.6496C30.1042 25.5102 29.4065 26.2079 28.5458 26.2079H23.0917C22.231 26.2079 21.5333 25.5102 21.5333 24.6496ZM21.5333 30.8829C21.5333 30.0223 22.231 29.3246 23.0917 29.3246H29.325C30.1856 29.3246 30.8833 30.0223 30.8833 30.8829C30.8833 31.7436 30.1856 32.4412 29.325 32.4412H23.0917C22.231 32.4412 21.5333 31.7436 21.5333 30.8829ZM23.0917 35.5579C22.231 35.5579 21.5333 36.2556 21.5333 37.1162C21.5333 37.9769 22.231 38.6746 23.0917 38.6746H30.1042C30.9648 38.6746 31.6625 37.9769 31.6625 37.1162C31.6625 36.2556 30.9648 35.5579 30.1042 35.5579H23.0917Z" fill="white"/>
</svg>
