<svg width="20" height="20" viewBox="0 0 20 20" fill="none" xmlns="http://www.w3.org/2000/svg">
<path d="M17.6562 6.21094H15.6641V0H4.33594V6.21094H2.34375C1.05133 6.21094 0 7.26227 0 8.55469V14.8828C0 16.1752 1.05133 17.2266 2.34375 17.2266H4.33594V20H15.6641V17.2266H17.6562C18.9487 17.2266 20 16.1752 20 14.8828V8.55469C20 7.26227 18.9487 6.21094 17.6562 6.21094ZM5.89844 1.5625H14.1016V6.21094H5.89844V1.5625ZM5.89844 18.4375V13.2422H14.1016V18.4375H5.89844ZM18.4375 14.8828C18.4375 15.3136 18.087 15.6641 17.6562 15.6641H15.6641V13.2422H16.875V11.6797H3.125V13.2422H4.33594V15.6641H2.34375C1.91299 15.6641 1.5625 15.3136 1.5625 14.8828V8.55469C1.5625 8.12393 1.91299 7.77344 2.34375 7.77344H17.6562C18.087 7.77344 18.4375 8.12393 18.4375 8.55469V14.8828ZM12.5391 3.125V4.6875H7.46094V3.125H12.5391Z" fill="#6694FB"/>
</svg>
