<svg width="64" height="64" viewBox="0 0 64 64" fill="none" xmlns="http://www.w3.org/2000/svg">
<rect width="64" height="64" rx="10" fill="#6694FB"/>
<path fill-rule="evenodd" clip-rule="evenodd" d="M33.2955 11.0828C33.92 11.4042 34.3125 12.0477 34.3125 12.75V20.2226L46.6525 29.0369C47.1452 29.3889 47.4376 29.9571 47.4376 30.5626V48.375H50.25C51.2855 48.375 52.125 49.2145 52.125 50.25C52.125 51.2855 51.2855 52.125 50.25 52.125H45.5863L45.5626 52.1251L45.539 52.125H32.4427L32.4375 52.125H19.3125L19.3073 52.125H12.75C11.7145 52.125 10.875 51.2855 10.875 50.25C10.875 49.2145 11.7145 48.375 12.75 48.375H17.4375V22.125C17.4375 21.5195 17.7299 20.9512 18.2227 20.5993L31.3477 11.2243C31.9192 10.816 32.671 10.7614 33.2955 11.0828ZM34.3125 48.375H43.6876V31.5276L34.3125 24.831V48.375Z" fill="white"/>
</svg>
