<svg width="46" height="44" viewBox="0 0 46 44" fill="none" xmlns="http://www.w3.org/2000/svg">
<path d="M28 6C24.0946 6 20.9286 9.22357 20.9286 13.2C20.9286 17.1765 24.0946 20.4001 28 20.4001C31.9054 20.4001 35.0714 17.1765 35.0714 13.2C35.0714 9.22357 31.9055 6 28 6Z" fill="#00B976"/>
<path d="M27.4997 23.599C26.4842 23.5966 25.4666 23.5942 24.4538 23.6645C23.4972 23.731 22.6513 23.8711 21.8503 24.2089C19.9252 25.0208 18.3955 26.5782 17.5981 28.5384C17.2664 29.354 17.1287 30.2153 17.0635 31.1893C17 32.1365 17 33.3003 17 34.7431V36.4C17 37.2837 17.7036 38 18.5714 38H37.4286C38.2964 38 39 37.2837 39 36.4V34.7431C39 33.3004 39 32.1365 38.9365 31.1893C38.8713 30.2153 38.7337 29.354 38.4019 28.5385C37.6045 26.5783 36.0749 25.0208 34.1497 24.2089C33.3487 23.8711 32.5028 23.731 31.5462 23.6645C30.6159 23.5999 29.4729 23.5999 28.0559 23.5999C27.8707 23.5999 27.6851 23.5995 27.4997 23.599Z" fill="#00B976"/>
<path d="M12.8333 3.66675C8.27698 3.66675 4.58333 7.3604 4.58333 11.9167C4.58333 16.4731 8.27698 20.1667 12.8333 20.1667C17.3897 20.1667 21.0833 16.4731 21.0833 11.9167C21.0833 7.3604 17.3897 3.66675 12.8333 3.66675Z" fill="#2C2858"/>
<path d="M12.2496 23.8322C11.0649 23.8294 9.87769 23.8266 8.69606 23.9072C7.58004 23.9834 6.59319 24.1439 5.65874 24.531C3.41269 25.4613 1.62813 27.2458 0.697816 29.4919C0.310747 30.4263 0.150185 31.4133 0.0740355 32.5293C-2.12044e-05 33.6146 -1.15048e-05 34.9482 2.96947e-07 36.6014V38.4999C2.96947e-07 39.5124 0.820814 40.3332 1.83333 40.3332H23.8333C24.8459 40.3332 25.6667 39.5124 25.6667 38.4999V36.6014C25.6667 34.9483 25.6667 33.6146 25.5926 32.5293C25.5165 31.4133 25.3559 30.4264 24.9689 29.4919C24.0386 27.2459 22.254 25.4613 20.0079 24.531C19.0735 24.1439 18.0866 23.9834 16.9706 23.9072C15.8853 23.8332 14.5517 23.8332 12.8985 23.8332C12.6825 23.8332 12.4659 23.8327 12.2496 23.8322Z" fill="#2C2858"/>
</svg>
