<svg width="47" height="36" viewBox="0 0 47 36" fill="none" xmlns="http://www.w3.org/2000/svg">
<path fill-rule="evenodd" clip-rule="evenodd" d="M4.54545 11.5237C4.54545 10.8662 5.05422 10.3333 5.68182 10.3333H19.3182C19.9458 10.3333 20.4545 10.8662 20.4545 11.5237V14.4999H23.8636C24.4912 14.4999 25 15.0329 25 15.6904C25 19.9054 22.6607 22.4863 19.8939 22.8007C18.8625 25.5866 16.5044 27.6662 13.6335 28.1047C13.6354 28.133 13.6364 28.1616 13.6364 28.1904V29.3809H15.3651C15.747 29.3809 16.1034 29.5819 16.3137 29.9159L18.5622 33.4873C18.7924 33.8529 18.8124 34.3214 18.6142 34.7071C18.416 35.0927 18.0317 35.3333 17.6136 35.3333H7.38636C6.97474 35.3333 6.59529 35.1001 6.39445 34.7236C6.1936 34.3472 6.20277 33.8864 6.41841 33.5191L8.51502 29.9477C8.7218 29.5955 9.08825 29.3809 9.48298 29.3809H11.3636V28.1904C11.3636 28.1616 11.3646 28.133 11.3665 28.1047C8.4956 27.6662 6.1375 25.5866 5.10605 22.8007C2.33931 22.4863 0 19.9054 0 15.6904C0 15.0329 0.508767 14.4999 1.13636 14.4999H4.54545V11.5237ZM4.54545 16.8809H2.35631C2.63163 18.7319 3.5495 19.7761 4.54545 20.2105V16.8809ZM20.4545 16.8809V20.2105C21.4505 19.7761 22.3684 18.7319 22.6437 16.8809H20.4545Z" fill="#00B976"/>
<path fill-rule="evenodd" clip-rule="evenodd" d="M16.3332 1.66667C16.3332 0.746192 17.0794 0 17.9998 0H37.9998C38.9203 0 39.6665 0.746192 39.6665 1.66667V5.83333H44.6665C45.587 5.83333 46.3332 6.57953 46.3332 7.5C46.3332 13.401 42.9022 17.0143 38.8443 17.4545C37.3315 21.3547 33.873 24.2662 29.6622 24.88C29.6651 24.9196 29.6665 24.9596 29.6665 25V26.6667H32.2019C32.7621 26.6667 33.2848 26.9481 33.5932 27.4157L36.8911 32.4157C37.2287 32.9275 37.258 33.5835 36.9674 34.1234C36.6767 34.6633 36.113 35 35.4998 35H20.4998C19.8961 35 19.3396 34.6735 19.045 34.1465C18.7505 33.6196 18.7639 32.9745 19.0802 32.4602L22.1552 27.4602C22.4585 26.9671 22.9959 26.6667 23.5749 26.6667H26.3332V25C26.3332 24.9596 26.3346 24.9196 26.3374 24.88C22.1267 24.2662 18.6682 21.3547 17.1554 17.4545C13.0975 17.0143 9.6665 13.401 9.6665 7.5C9.6665 6.57953 10.4127 5.83333 11.3332 5.83333H16.3332V1.66667ZM16.3332 9.16667H13.1224C13.5262 11.7581 14.8724 13.22 16.3332 13.8282V9.16667ZM39.6665 9.16667V13.8282C41.1272 13.22 42.4734 11.7581 42.8772 9.16667H39.6665Z" fill="#2C2858"/>
</svg>
