<svg width="34" height="34" viewBox="0 0 34 34" fill="none" xmlns="http://www.w3.org/2000/svg">
<path d="M3 13L15.5 5V31.5H3V13Z" fill="#00B976"/>
<path fill-rule="evenodd" clip-rule="evenodd" d="M14.2207 1.57687C14.6893 1.33292 15.2546 1.36991 15.6874 1.67284L22.7707 6.63117C23.1494 6.89627 23.375 7.32947 23.375 7.79175V16.271L27.74 19.389C28.1123 19.6549 28.3333 20.0842 28.3333 20.5418V29.7501H31.1666C31.949 29.7501 32.5833 30.3843 32.5833 31.1667C32.5833 31.9492 31.949 32.5834 31.1666 32.5834H26.9206L26.9166 32.5834H14.875L14.871 32.5834H7.81038L7.79163 32.5835L7.77287 32.5834H2.83329C2.05089 32.5834 1.41663 31.9492 1.41663 31.1667C1.41663 30.3843 2.05089 29.7501 2.83329 29.7501H6.37496V14.1669C6.37496 13.7046 6.60051 13.2714 6.97922 13.0063L13.4583 8.47094V2.83342C13.4583 2.30518 13.7522 1.82081 14.2207 1.57687ZM13.4583 11.9295L9.20829 14.9045V29.7501H13.4583V11.9295Z" fill="#2C2858"/>
</svg>
