<svg width="43" height="41" viewBox="0 0 43 41" fill="none" xmlns="http://www.w3.org/2000/svg">
<path d="M23.3165 1.87601C22.9973 1.23285 22.3405 0.826775 21.6225 0.82862C20.9045 0.830464 20.2498 1.23991 19.9339 1.8847L14.6081 12.7555L2.5009 14.5112C1.79094 14.6141 1.20089 15.111 0.978607 15.7931C0.75632 16.4751 0.940301 17.2243 1.45327 17.7258L10.2261 26.3025L8.13129 38.2163C8.0064 38.9266 8.29755 39.6459 8.88132 40.0693C9.46509 40.4928 10.2392 40.5462 10.8756 40.2069L21.6274 34.475L32.3816 40.207C33.0177 40.546 33.7913 40.4928 34.3749 40.07C34.9586 39.6472 35.2501 38.9286 35.1262 38.2187L33.0464 26.3025L41.8052 17.7246C42.3173 17.2231 42.5008 16.4745 42.2787 15.793C42.0565 15.1115 41.4672 14.6148 40.7579 14.5114L28.716 12.7555L23.3165 1.87601Z" fill="#00B976"/>
</svg>
