<svg width="42" height="38" viewBox="0 0 42 38" fill="none" xmlns="http://www.w3.org/2000/svg">
<circle cx="14.7097" cy="23.2902" r="14.7097" fill="#2C2858"/>
<path d="M16.2338 26.4265C16.2338 26.0092 16.0605 25.6914 15.7137 25.4731C15.3734 25.2548 14.8052 25.0621 14.0091 24.8952C13.2129 24.7283 12.5483 24.5164 12.0154 24.2596C10.8469 23.6945 10.2626 22.8759 10.2626 21.8036C10.2626 20.9047 10.6414 20.1535 11.399 19.55C12.1567 18.9464 13.1198 18.6447 14.2884 18.6447C15.534 18.6447 16.5388 18.9529 17.3029 19.5692C18.0733 20.1856 18.4586 20.985 18.4586 21.9674H16.1182C16.1182 21.5179 15.9513 21.1455 15.6174 20.8502C15.2836 20.5484 14.8405 20.3975 14.2884 20.3975C13.7747 20.3975 13.3541 20.5163 13.0267 20.7539C12.7057 20.9914 12.5451 21.3093 12.5451 21.7073C12.5451 22.0669 12.696 22.3462 12.9978 22.5452C13.2996 22.7443 13.9095 22.9465 14.8277 23.152C15.7458 23.351 16.465 23.5918 16.985 23.8743C17.5115 24.1504 17.9 24.4843 18.1504 24.8759C18.4072 25.2676 18.5356 25.7427 18.5356 26.3013C18.5356 27.2388 18.1472 27.9996 17.3703 28.5839C16.5934 29.1617 15.5757 29.4507 14.3172 29.4507C13.4633 29.4507 12.7024 29.2966 12.0347 28.9884C11.3669 28.6802 10.8469 28.2564 10.4745 27.7171C10.1021 27.1778 9.91587 26.5967 9.91587 25.9739H12.1888C12.2209 26.5261 12.4296 26.953 12.8148 27.2548C13.2 27.5502 13.7105 27.6978 14.3461 27.6978C14.9625 27.6978 15.4312 27.5823 15.7523 27.3511C16.0733 27.1135 16.2338 26.8054 16.2338 26.4265Z" fill="#00B976"/>
<path d="M14.6177 13.6143V16.3264" stroke="#00B976" stroke-width="2.03407"/>
<path d="M14.6177 30.6453V33.3574" stroke="#00B976" stroke-width="2.03407"/>
<circle cx="30.6451" cy="11.0323" r="11.0323" fill="#00B976"/>
<path d="M31.7883 12.6344C31.7883 12.3214 31.6583 12.083 31.3982 11.9193C31.143 11.7556 30.7168 11.6111 30.1197 11.4859C29.5226 11.3607 29.0242 11.2018 28.6245 11.0092C27.7481 10.5854 27.3099 9.97144 27.3099 9.16725C27.3099 8.49307 27.594 7.92966 28.1622 7.477C28.7304 7.02434 29.4528 6.79801 30.3292 6.79801C31.2634 6.79801 32.017 7.02916 32.5901 7.49145C33.1679 7.95374 33.4569 8.55327 33.4569 9.29004H31.7016C31.7016 8.95296 31.5764 8.67366 31.326 8.45214C31.0756 8.22581 30.7433 8.11265 30.3292 8.11265C29.9439 8.11265 29.6285 8.20174 29.3829 8.37991C29.1422 8.55808 29.0218 8.79645 29.0218 9.09501C29.0218 9.36468 29.1349 9.57416 29.3613 9.72344C29.5876 9.87272 30.0451 10.0244 30.7337 10.1785C31.4223 10.3278 31.9616 10.5084 32.3517 10.7202C32.7466 10.9273 33.0379 11.1777 33.2257 11.4715C33.4183 11.7652 33.5146 12.1216 33.5146 12.5405C33.5146 13.2436 33.2233 13.8142 32.6406 14.2524C32.058 14.6858 31.2947 14.9025 30.3509 14.9025C29.7104 14.9025 29.1397 14.7869 28.6389 14.5558C28.1381 14.3247 27.7481 14.0068 27.4688 13.6023C27.1895 13.1978 27.0498 12.762 27.0498 12.2949H28.7545C28.7786 12.7091 28.9351 13.0293 29.224 13.2556C29.513 13.4771 29.8958 13.5879 30.3725 13.5879C30.8348 13.5879 31.1863 13.5012 31.4271 13.3278C31.6679 13.1497 31.7883 12.9185 31.7883 12.6344Z" fill="#2C2858"/>
<path d="M30.5761 3.77539V5.80946" stroke="#2C2858" stroke-width="1.52555"/>
<path d="M30.5761 16.5483V18.5824" stroke="#2C2858" stroke-width="1.52555"/>
</svg>
