<svg width="69" height="70" viewBox="0 0 69 70" fill="none" xmlns="http://www.w3.org/2000/svg">
<path d="M0 10C0 4.47715 4.47715 0 10 0H59C64.5228 0 69 4.47715 69 10V50C69 61.0457 60.0457 70 49 70H10C4.47715 70 0 65.5229 0 60V10Z" fill="#6694FB"/>
<path fill-rule="evenodd" clip-rule="evenodd" d="M23.3327 22.3327C26.317 19.3485 30.4441 17.5 35 17.5C39.5559 17.5 43.683 19.3485 46.6672 22.3327C49.6515 25.317 51.5 29.4441 51.5 34C51.5 38.5559 49.6515 42.683 46.6672 45.6672C43.683 48.6515 39.5559 50.5 35 50.5C30.4441 50.5 26.317 48.6515 23.3327 45.6672C20.3485 42.683 18.5 38.5559 18.5 34C18.5 29.4441 20.3485 25.317 23.3327 22.3327ZM36.875 26.125C36.875 25.0895 36.0355 24.25 35 24.25C33.9645 24.25 33.125 25.0895 33.125 26.125C33.125 27.1605 33.9645 28 35 28C36.0355 28 36.875 27.1605 36.875 26.125ZM33.875 29.5C33.0466 29.5 32.375 30.1716 32.375 31C32.375 31.8284 33.0466 32.5 33.875 32.5V40H32.75C31.9216 40 31.25 40.6716 31.25 41.5C31.25 42.3284 31.9216 43 32.75 43H38C38.8284 43 39.5 42.3284 39.5 41.5C39.5 40.6716 38.8284 40 38 40H36.875V31C36.875 30.1716 36.2034 29.5 35.375 29.5H33.875Z" fill="white"/>
</svg>
