<svg width="44" height="44" viewBox="0 0 44 44" fill="none" xmlns="http://www.w3.org/2000/svg">
<g clip-path="url(#clip0)">
<path d="M34.839 6.68123L32.6338 8.84558C32.6338 8.84558 31.8958 8.67921 31.383 8.42965L27.9278 6.74854C27.5081 6.54436 26.9908 6.44604 26.4637 6.44604C25.7052 6.44604 24.924 6.65023 24.3765 7.03742L19.0322 10.7853C18.1035 11.4425 17.8979 12.7273 18.5754 13.6416L18.8923 14.0696C19.3271 14.655 20.038 14.9749 20.7489 14.9749C21.1489 14.9749 21.5482 14.8743 21.8991 14.6625L24.4347 13.0442C24.8832 12.7742 25.4526 12.6411 26.0281 12.6411C26.7034 12.6411 27.3863 12.8249 27.8862 13.1841L31.5668 16.5561C32.4909 17.2209 33.9278 18.3998 34.7626 19.1735L38.1052 22.2801L44 15.4498L34.839 6.68123Z" fill="#00B976"/>
<path d="M37.0759 24.7856L31.482 19.5865C30.9958 19.1917 29.9121 18.3621 29.9121 18.3621L26.4062 15.1512C26.3321 15.1232 26.196 15.0907 26.0281 15.0907C25.8534 15.0907 25.7377 15.1262 25.7082 15.1391L23.1657 16.7597C22.4443 17.1953 21.6086 17.4244 20.7503 17.4244C19.2371 17.4244 17.8071 16.7158 16.9253 15.527L16.6092 15.1012C15.8847 14.1242 15.5913 12.9271 15.7834 11.7292C15.9747 10.5321 16.6273 9.48544 17.6271 8.77912L18.2026 8.37604C17.3722 8.27471 16.4511 8.36319 15.7773 8.65131C15.7773 8.65131 14.6483 9.1474 14.286 9.30092C13.4466 9.65711 12.2699 9.65181 12.2699 9.65181L9.50814 7.0791L0 16.5237L3.57548 20.1196L4.38767 19.2688C5.23466 18.3803 6.42724 17.8698 7.65914 17.8698C8.82753 17.8698 9.93541 18.313 10.7786 19.1168L11.1635 19.4836C11.6589 19.9563 12.0241 20.5129 12.2578 21.1133C12.9966 21.3031 13.6773 21.6782 14.2429 22.2174L14.6256 22.5834C15.4983 23.4138 15.9959 24.536 16.0254 25.7445C16.2901 25.9078 16.5411 26.1007 16.7703 26.32L17.1575 26.689C17.6997 27.2063 18.0854 27.8264 18.3122 28.4911C18.9974 28.6908 19.6288 29.0515 20.1552 29.5529L20.5469 29.925C22.1214 31.4268 22.3717 33.8022 21.2676 35.5816L21.561 35.8553C22.3944 36.6305 23.7102 36.5828 24.4854 35.7495L24.8476 35.3585C25.6061 34.5418 25.5683 33.2683 24.7818 32.4901L27.4642 34.9781C28.2991 35.7517 29.6149 35.7033 30.39 34.8685L30.7523 34.479C31.5221 33.6502 31.4768 32.3457 30.657 31.569L31.3467 32.2103C32.1808 32.9847 33.4959 32.9355 34.2703 32.1022L34.6333 31.7119C35.4077 30.8771 35.3585 29.5612 34.5251 28.7861L33.9428 28.2461C34.78 28.9766 36.0595 28.9207 36.8196 28.1017L37.1841 27.7107C37.9584 26.8751 37.9108 25.5592 37.0759 24.7856Z" fill="#2C2858"/>
<path d="M18.8552 31.6976L18.468 31.3293C18.0687 30.9489 17.5545 30.7598 17.0403 30.7598C16.4943 30.7598 15.9482 30.9739 15.5429 31.3989L15.5361 31.3875C16.3203 30.564 16.2893 29.2474 15.4658 28.4624L15.0793 28.0941C14.6816 27.716 14.1726 27.5285 13.6614 27.5285C13.1449 27.5285 12.6299 27.7198 12.2306 28.0971L13.0057 27.2849C13.7915 26.4614 13.7612 25.144 12.9362 24.3591L12.5505 23.9908C12.1527 23.6112 11.64 23.4236 11.128 23.4236C10.5964 23.4236 10.0663 23.6255 9.66394 24.0256C10.3105 23.1998 10.2462 21.9974 9.47185 21.2585L9.08693 20.891C8.68764 20.5106 8.17189 20.3215 7.6584 20.3215C7.11089 20.3208 6.56565 20.5355 6.1603 20.9606L2.27401 25.0351C1.48904 25.8579 1.52005 27.1753 2.34586 27.9595L2.73002 28.327C3.12705 28.7052 3.63675 28.8904 4.14569 28.8904C4.61532 28.8904 5.08418 28.7324 5.46532 28.4208L4.44138 29.4931C3.65717 30.3174 3.68817 31.6333 4.51096 32.419L4.8989 32.7873C5.2982 33.1677 5.81319 33.3568 6.32592 33.3568C6.87343 33.3568 7.41868 33.1427 7.82402 32.7177L8.62336 31.8791C7.91174 32.7056 7.95939 33.9617 8.75721 34.7218L9.14516 35.09C9.5437 35.4697 10.0587 35.6587 10.5729 35.6587C11.1197 35.6587 11.6657 35.4447 12.0703 35.0197L13.3551 33.6902C12.5694 34.5145 12.5996 35.8304 13.4247 36.6161L13.8119 36.9844C14.2097 37.3648 14.7239 37.5539 15.2381 37.5539C15.7849 37.5539 16.3309 37.3398 16.7355 36.9148L18.9248 34.6204C19.7105 33.7991 19.678 32.4833 18.8552 31.6976Z" fill="#00B976"/>
</g>
<defs>
<clipPath id="clip0">
<rect width="44" height="44" fill="white"/>
</clipPath>
</defs>
</svg>
