<svg width="69" height="70" viewBox="0 0 69 70" fill="none" xmlns="http://www.w3.org/2000/svg">
<path d="M0 10C0 4.47715 4.47715 0 10 0H59C64.5228 0 69 4.47715 69 10V50C69 61.0457 60.0457 70 49 70H10C4.47715 70 0 65.5229 0 60V10Z" fill="#00B976"/>
<path d="M35.3426 20.0832C35.0887 19.5716 34.5663 19.2485 33.9951 19.25C33.424 19.2515 32.9032 19.5772 32.652 20.0901L28.4155 28.7373L18.7848 30.1339C18.22 30.2157 17.7507 30.611 17.5739 31.1535C17.3971 31.6961 17.5434 32.292 17.9514 32.6909L24.9299 39.5133L23.2635 48.9902C23.1642 49.5552 23.3958 50.1274 23.8601 50.4642C24.3245 50.801 24.9403 50.8435 25.4465 50.5737L33.9991 46.0142L42.5536 50.5737C43.0595 50.8434 43.6748 50.8011 44.1391 50.4647C44.6034 50.1284 44.8353 49.5568 44.7368 48.9921L43.0823 39.5133L50.0496 32.69C50.457 32.291 50.6029 31.6956 50.4262 31.1535C50.2495 30.6114 49.7807 30.2163 49.2165 30.134L39.6377 28.7373L35.3426 20.0832Z" fill="white"/>
</svg>
