<svg width="35" height="35" viewBox="0 0 35 35" fill="none" xmlns="http://www.w3.org/2000/svg">
<g clip-path="url(#clip0)">
<path d="M20.121 27.5908H2.6281C1.1773 27.5908 0 28.768 0 30.219V34.9979H22.7491V30.219C22.7491 28.768 21.5718 27.5908 20.121 27.5908Z" fill="white"/>
<path d="M34.5284 27.9614L18.5603 11.9933L21.6445 8.91451C22.1531 9.36296 22.9351 9.34103 23.4163 8.85982C23.9194 8.35128 23.9194 7.53641 23.4163 7.02787L16.7666 0.383606C16.2635 -0.124939 15.4432 -0.124939 14.9402 0.383606C14.4316 0.886739 14.4316 1.70702 14.9402 2.21008L14.8855 2.15539L6.44202 10.5933L6.4967 10.6534C5.99357 10.1449 5.17329 10.1449 4.67023 10.6534C4.16168 11.1565 4.16168 11.9768 4.67023 12.4799L11.3145 19.1296C11.823 19.6328 12.6433 19.6328 13.1464 19.1296C13.6496 18.6211 13.6496 17.8063 13.1464 17.2978L13.2011 17.3523L16.2854 14.2736L32.248 30.2363C32.8769 30.8652 33.8995 30.8652 34.5284 30.2363C35.1573 29.6074 35.1573 28.5902 34.5284 27.9614Z" fill="white"/>
</g>
<defs>
<clipPath id="clip0">
<rect width="35" height="35" fill="white"/>
</clipPath>
</defs>
</svg>
