<svg width="20" height="20" viewBox="0 0 20 20" fill="none" xmlns="http://www.w3.org/2000/svg">
<path d="M18.3333 2.9165C18.4572 2.919 18.5747 2.94164 18.692 2.99744C18.813 3.05531 18.9195 3.1425 19 3.24984C19.0528 3.3285 19.0405 3.30489 19 3.24984C19.1079 3.39376 19.1667 3.56998 19.1667 3.74984C19.1664 3.70545 19.1645 3.68618 19.1667 3.74984V16.2498C19.1667 16.7101 18.7936 17.0832 18.3333 17.0832H1.66667C1.20643 17.0832 0.833336 16.7101 0.833336 16.2498V3.74984C0.833336 3.60065 0.873808 3.45251 0.949939 3.32456C1.10508 3.06315 1.3738 2.92241 1.66667 2.9165H18.3333ZM17.5 5.4165L10.5 10.6665C10.2333 10.8665 9.87667 10.8865 9.592 10.7265L9.5 10.6665L2.5 5.4165V15.4165H17.5V5.4165ZM4.16667 4.58317L10 8.95817L15.8333 4.58317H4.16667Z" fill="#6694FB"/>
</svg>
