<svg width="64" height="64" viewBox="0 0 64 64" fill="none" xmlns="http://www.w3.org/2000/svg">
<rect width="64" height="64" rx="10" fill="#6694FB"/>
<path d="M28.2246 45.6224V40.5262C28.2246 39.2253 29.2869 38.1707 30.5974 38.1707H35.3877C36.017 38.1707 36.6205 38.4188 37.0655 38.8606C37.5105 39.3023 37.7604 39.9015 37.7604 40.5262V45.6224C37.7565 46.1632 37.9701 46.6833 38.3539 47.0671C38.7378 47.451 39.2601 47.6668 39.8049 47.6668H43.073C44.5994 47.6707 46.0646 47.0716 47.1453 46.0015C48.226 44.9314 48.8333 43.4785 48.8333 41.9632V27.4449C48.8333 26.2209 48.2868 25.0599 47.341 24.2746L36.2234 15.4599C34.2894 13.9144 31.5185 13.9643 29.6423 15.5785L18.7784 24.2746C17.7879 25.0368 17.1959 26.2012 17.1667 27.4449V41.9484C17.1667 45.1066 19.7456 47.6668 22.927 47.6668H26.1205C27.252 47.6668 28.1717 46.7605 28.1799 45.6372L28.2246 45.6224Z" fill="white"/>
</svg>
