<svg width="64" height="64" viewBox="0 0 64 64" fill="none" xmlns="http://www.w3.org/2000/svg">
<rect width="64" height="64" rx="10" fill="#6694FB"/>
<path d="M33.641 13.7683C33.3306 13.143 32.6921 12.7482 31.9941 12.75C31.296 12.7518 30.6595 13.1499 30.3524 13.7767L25.1745 24.3456L13.4036 26.0525C12.7134 26.1526 12.1397 26.6356 11.9236 27.2988C11.7075 27.9619 11.8864 28.6902 12.3851 29.1778L20.9143 37.5163L18.8776 49.0992C18.7562 49.7897 19.0393 50.489 19.6068 50.9007C20.1744 51.3124 20.927 51.3643 21.5457 51.0345L31.9989 45.4618L42.4544 51.0345C43.0727 51.3641 43.8248 51.3124 44.3923 50.9013C44.9597 50.4903 45.2432 49.7917 45.1227 49.1014L43.1007 37.5163L51.6162 29.1767C52.1141 28.689 52.2924 27.9613 52.0765 27.2987C51.8605 26.6361 51.2875 26.1532 50.5979 26.0527L38.8906 24.3456L33.641 13.7683Z" fill="white"/>
</svg>
