<svg width="44" height="44" viewBox="0 0 44 44" fill="none" xmlns="http://www.w3.org/2000/svg">
<rect x="10" y="12" width="22" height="23" fill="#6694FB"/>
<path fill-rule="evenodd" clip-rule="evenodd" d="M21.0705 2.08636C21.6442 1.74888 22.3558 1.74888 22.9295 2.08636L38.5129 11.2528C39.0728 11.5821 39.4167 12.1833 39.4167 12.833V31.1664C39.4167 31.8161 39.0729 32.4172 38.5129 32.7466L22.9296 41.9135C22.3558 42.251 21.6442 42.251 21.0705 41.9135L5.48713 32.7466C4.92716 32.4172 4.58334 31.8161 4.58334 31.1664V12.833C4.58334 12.1833 4.92718 11.5821 5.48716 11.2528L21.0705 2.08636ZM30.8834 16.4432C31.4202 17.3017 31.1593 18.4328 30.3007 18.9696L23.8333 23.0128V30.2499C23.8333 31.2624 23.0125 32.0833 22 32.0833C20.9875 32.0833 20.1667 31.2624 20.1667 30.2499V23.02L13.6941 18.9691C12.8358 18.4319 12.5755 17.3007 13.1126 16.4424C13.6498 15.5841 14.781 15.3238 15.6393 15.861L21.9943 19.8383L28.357 15.8605C29.2156 15.3238 30.3467 15.5846 30.8834 16.4432Z" fill="#2C2858"/>
</svg>
