<svg width="35" height="35" viewBox="0 0 35 35" fill="none" xmlns="http://www.w3.org/2000/svg">
<g clip-path="url(#clip0)">
<path d="M10.7204 10.9798C10.8419 11.5389 11.0283 11.9008 11.2457 12.1264C11.763 15.7268 14.9948 18.7952 17.5905 18.6669C20.8925 18.5049 23.2329 14.9462 23.7583 12.1264C23.9757 11.9022 24.185 11.4227 24.3106 10.8596C24.4511 10.2127 24.6023 9.23761 24.2134 8.72171C24.1904 8.6947 24.0419 8.5583 24.0162 8.53534C24.3876 7.19563 25.2033 4.80521 23.1721 2.65654C22.0715 1.49239 20.5427 0.907619 19.1611 0.445742C15.0825 -0.91693 12.2032 0.994052 10.8743 4.17182C10.7784 4.39735 10.1586 5.82485 10.9094 8.53534C10.8365 8.58396 10.7703 8.64608 10.715 8.72171C10.3247 9.23626 10.5786 10.3329 10.7204 10.9798Z" fill="white"/>
<path d="M31.8141 30.7812C31.7007 28.303 31.5602 24.3757 29.3954 21.1628C29.3954 21.1628 28.7782 20.3214 27.3142 19.7623C27.3142 19.7623 24.1351 18.794 22.6711 17.7473L22.0026 18.2051L22.0769 22.5511L18.0632 33.2661C17.9754 33.5011 17.7512 33.6564 17.5014 33.6564C17.2515 33.6564 17.0273 33.5011 16.9395 33.2661L12.9272 22.5511C12.9272 22.5511 13.0014 18.2186 13.0001 18.2051C13.0095 18.2416 12.3302 17.7473 12.3302 17.7473C10.869 18.794 7.6885 19.7623 7.6885 19.7623C6.22454 20.3214 5.60736 21.1628 5.60736 21.1628C3.44383 24.3757 3.30067 28.303 3.18723 30.7812C3.1089 32.4936 3.46814 33.1324 3.91921 33.3147C9.51846 35.562 25.4802 35.562 31.0808 33.3147C31.5346 33.1338 31.8911 32.4936 31.8141 30.7812Z" fill="white"/>
<path d="M17.6445 20.0512L17.4635 20.0553C16.8801 20.0553 16.2913 19.9418 15.7133 19.7419L17.3042 22.1769L15.8767 23.5545L17.346 32.4773C17.3582 32.5543 17.4244 32.6097 17.5027 32.6097C17.5797 32.6097 17.6458 32.5543 17.6594 32.4773L19.1287 23.5545L17.6999 22.1769L19.2678 19.7784C18.756 19.9283 18.2144 20.0283 17.6445 20.0512Z" fill="white"/>
</g>
<defs>
<clipPath id="clip0">
<rect width="35" height="35" fill="white"/>
</clipPath>
</defs>
</svg>
