<svg width="45" height="32" viewBox="0 0 45 32" fill="none" xmlns="http://www.w3.org/2000/svg">
<g clip-path="url(#clip0)">
<path d="M6.43217 6.58772C6.5051 6.92319 6.61692 7.14035 6.74738 7.27567C7.05773 9.43596 8.99681 11.277 10.5542 11.2C12.5354 11.1028 13.9397 8.9676 14.2549 7.27567C14.3854 7.14116 14.511 6.8535 14.5863 6.5156C14.6706 6.12746 14.7614 5.54242 14.528 5.23288C14.5142 5.21667 14.4251 5.13483 14.4097 5.12106C14.6325 4.31723 15.1219 2.88298 13.9032 1.59378C13.2428 0.895289 12.3256 0.544425 11.4966 0.267299C9.04948 -0.550304 7.32189 0.596285 6.52455 2.50294C6.46702 2.63827 6.09508 3.49476 6.54562 5.12106C6.50186 5.15023 6.46216 5.1875 6.42893 5.23288C6.19475 5.54161 6.34709 6.19958 6.43217 6.58772Z" fill="white"/>
<path d="M19.0884 18.4683C19.0204 16.9813 18.9361 14.625 17.6372 12.6972C17.6372 12.6972 17.2669 12.1924 16.3885 11.8569C16.3885 11.8569 14.481 11.2759 13.6026 10.6479L13.2015 10.9226L13.2461 13.5302L10.8379 19.9592C10.7852 20.1002 10.6507 20.1934 10.5008 20.1934C10.3509 20.1934 10.2163 20.1002 10.1637 19.9592L7.75625 13.5302C7.75625 13.5302 7.80081 10.9307 7.8 10.9226C7.80568 10.9445 7.39809 10.6479 7.39809 10.6479C6.52133 11.2759 4.61305 11.8569 4.61305 11.8569C3.73468 12.1924 3.36437 12.6972 3.36437 12.6972C2.06625 14.625 1.98036 16.9813 1.91229 18.4683C1.86529 19.4957 2.08083 19.879 2.35148 19.9884C5.71102 21.3368 15.2881 21.3368 18.6484 19.9884C18.9207 19.8798 19.1346 19.4957 19.0884 18.4683Z" fill="white"/>
<path d="M10.5867 12.0308L10.4781 12.0332C10.128 12.0332 9.77473 11.9651 9.42792 11.8452L10.3825 13.3062L9.52596 14.1327L10.4076 19.4864C10.4149 19.5326 10.4546 19.5659 10.5016 19.5659C10.5478 19.5659 10.5875 19.5326 10.5956 19.4864L11.4772 14.1327L10.6199 13.3062L11.5607 11.8671C11.2535 11.957 10.9286 12.017 10.5867 12.0308Z" fill="white"/>
</g>
<g clip-path="url(#clip1)">
<path d="M35.2224 27.1309H23.727C22.7737 27.1309 22 27.9044 22 28.8579V31.9984H36.9494V28.8579C36.9494 27.9044 36.1758 27.1309 35.2224 27.1309Z" fill="white"/>
<path d="M44.6901 27.3747L34.1968 16.8813L36.2235 14.8581C36.5577 15.1528 37.0716 15.1384 37.3879 14.8222C37.7185 14.488 37.7185 13.9525 37.3879 13.6183L33.0181 9.2521C32.6874 8.91792 32.1484 8.91792 31.8178 9.2521C31.4836 9.58273 31.4836 10.1218 31.8178 10.4524L31.7819 10.4164L26.2333 15.9613L26.2693 16.0008C25.9386 15.6666 25.3996 15.6666 25.069 16.0008C24.7348 16.3315 24.7348 16.8705 25.069 17.2011L29.4352 21.5709C29.7694 21.9015 30.3085 21.9015 30.6391 21.5709C30.9697 21.2367 30.9697 20.7013 30.6391 20.3671L30.675 20.403L32.7018 18.3798L43.1915 28.8696C43.6048 29.2828 44.2768 29.2828 44.6901 28.8696C45.1033 28.4563 45.1033 27.7879 44.6901 27.3747Z" fill="white"/>
</g>
<defs>
<clipPath id="clip0">
<rect width="21" height="21" fill="white"/>
</clipPath>
<clipPath id="clip1">
<rect width="23" height="23" fill="white" transform="translate(22 9)"/>
</clipPath>
</defs>
</svg>
