<svg width="54" height="54" viewBox="0 0 54 54" fill="none" xmlns="http://www.w3.org/2000/svg">
<path d="M32.5753 27.7936C32.5963 28.8484 32.5084 29.9349 32.4838 31.0037C32.4487 36.1124 22.6392 38.665 21.1871 33.2434C20.8566 31.6999 21.4262 30.4833 22.5935 29.5129C25.1355 27.8042 28.2893 27.7796 31.1407 26.8021C31.2996 26.746 31.4696 26.7287 31.6365 26.7517C31.8034 26.7748 31.9624 26.8374 32.1001 26.9345C32.2378 27.0316 32.3503 27.1603 32.428 27.3097C32.5058 27.4592 32.5466 27.6252 32.5471 27.7936" fill="#6694FB"/>
<path d="M26.5735 2.32736e-07C21.3183 -0.000695176 16.181 1.55702 11.8111 4.47615C7.4412 7.39527 4.0351 11.5447 2.02354 16.3997C0.011983 21.2546 -0.514694 26.5971 0.510118 31.7514C1.53493 36.9057 4.0652 41.6404 7.78094 45.3566C11.4967 49.0728 16.231 51.6037 21.3852 52.6292C26.5394 53.6547 31.8819 53.1288 36.7371 51.1178C41.5924 49.1069 45.7422 45.7014 48.6619 41.3319C51.5816 36.9624 53.14 31.8252 53.14 26.57C53.14 19.5238 50.3412 12.7662 45.3591 7.78342C40.377 2.80068 33.6197 0.000932639 26.5735 2.32736e-07ZM21.8587 41.1366C12.7488 39.2626 11.6378 26.6474 21.4016 24.464C24.6679 23.6975 28.2014 23.5568 31.1478 21.8129C32.9937 20.7335 32.4909 17.745 30.4446 17.193C29.0382 16.7183 27.6318 16.7289 26.1587 16.8414C23.6975 17.0418 22.2489 18.3708 21.8797 21.827C21.8 22.5156 21.4689 23.1505 20.9498 23.6099C20.4307 24.0693 19.7602 24.3209 19.067 24.3163H19.0107C18.6317 24.3166 18.2565 24.2403 17.9077 24.0919C17.5589 23.9436 17.2437 23.7263 16.981 23.4531C16.7182 23.1799 16.5135 22.8564 16.3789 22.502C16.2444 22.1476 16.1828 21.7698 16.198 21.391C16.3035 17.963 17.1262 14.4962 20.6703 13.111C24.4112 11.4128 28.662 11.2827 32.6245 12.2601C39.252 13.9056 38.4645 23.9682 38.5664 30.2266C38.3731 38.4961 29.2492 42.9719 21.8551 41.126" fill="#6694FB"/>
</svg>
