<svg width="322" height="74" viewBox="0 0 322 74" fill="none" xmlns="http://www.w3.org/2000/svg">
<g clip-path="url(#clip0)">
<path d="M104.148 36.7889C91.0998 39.7516 92.5854 56.7869 104.755 59.3422C114.634 61.8309 126.826 55.7722 127.089 44.5882C126.95 36.1223 128.004 22.5163 119.142 20.2943C113.845 18.8572 108.226 19.2588 103.182 21.4349C98.447 23.3088 97.3273 27.9972 97.2029 32.6412C97.1862 33.1546 97.2718 33.6661 97.4544 34.1453C97.6371 34.6245 97.9131 35.0616 98.2661 35.4307C98.6191 35.7997 99.0418 36.0931 99.5091 36.2933C99.9764 36.4936 100.479 36.5966 100.986 36.5964H101.067C101.993 36.6009 102.889 36.2598 103.583 35.6381C104.277 35.0165 104.72 34.1579 104.828 33.2263C105.326 28.5527 107.25 26.7529 110.543 26.4863C112.465 26.2414 114.416 26.4028 116.273 26.9603C118.988 27.701 119.661 31.745 117.195 33.2115C113.258 35.5668 108.538 35.752 104.177 36.7889H104.148ZM118.981 45.6769C118.937 52.5874 105.809 56.0463 103.884 48.6989C103.673 47.7619 103.741 46.7826 104.08 45.8848C104.418 44.987 105.012 44.211 105.787 43.6549C109.19 41.3514 113.397 41.3144 117.21 39.9516C117.424 39.8846 117.65 39.868 117.871 39.9032C118.092 39.9384 118.302 40.0243 118.485 40.1545C118.668 40.2847 118.819 40.4556 118.926 40.6541C119.034 40.8526 119.095 41.0734 119.105 41.2996C119.105 42.7439 119.017 44.1956 118.981 45.6399" fill="#222220"/>
<path d="M134.495 54.2687C133.134 52.7429 132.453 50.3727 132.453 47.1583V27.4862C132.453 26.2517 133.602 25.632 135.9 25.6271H137.502C139.79 25.6271 140.937 26.2468 140.942 27.4862V45.8843C140.87 46.8552 141.157 47.8185 141.747 48.5877C142.099 48.9167 142.515 49.1667 142.969 49.3211C143.423 49.4756 143.905 49.5311 144.381 49.4839C145.381 49.495 146.35 49.1339 147.103 48.4692C147.869 47.8158 148.503 47.0185 148.97 46.1213V27.4862C148.97 26.2517 150.116 25.632 152.409 25.6271H154.019C156.307 25.6271 157.453 26.2468 157.458 27.4862V45.8843C157.458 47.6693 157.502 49.0173 157.597 49.9506C157.692 50.8838 157.817 51.9059 157.97 53.0243C158.076 53.4409 158.135 53.8683 158.146 54.2983C158.146 54.9204 157.37 55.3871 155.819 55.6907C154.471 55.98 153.099 56.1363 151.721 56.1574C151.422 56.187 151.121 56.1225 150.859 55.9728C150.597 55.823 150.387 55.5952 150.257 55.3204C149.985 54.7376 149.783 54.1232 149.657 53.491C149.526 52.8318 149.438 52.3874 149.401 52.1578C148.412 53.4505 147.166 54.518 145.742 55.2908C144.245 56.1382 142.555 56.5772 140.839 56.5647C137.971 56.5647 135.856 55.8241 134.473 54.2687" fill="#222220"/>
<path d="M162.368 60.3939C162.348 58.9412 162.824 57.5259 163.715 56.3869C164.736 55.1381 166.074 54.1956 167.586 53.6612L167.645 53.4316C166.863 53.0673 166.218 52.4567 165.808 51.6911C165.379 50.8889 165.162 49.9883 165.178 49.0765C165.187 48.1175 165.497 47.1863 166.064 46.4175C166.737 45.5165 167.613 44.7904 168.618 44.2992C165.52 42.5562 163.971 39.6725 163.971 35.6482C163.971 32.1325 165.108 29.5303 167.381 27.8416C169.655 26.1529 172.628 25.311 176.302 25.3159C177.777 25.3172 179.249 25.4736 180.692 25.7826H189.927C190.189 25.7641 190.451 25.8194 190.683 25.9423C190.916 26.0652 191.11 26.2509 191.245 26.4788C191.559 27.1742 191.697 27.9378 191.647 28.7008V29.6859C191.647 31.5079 191.186 32.4115 190.271 32.4115C189.964 32.4115 189.54 32.4115 189.064 32.3597C188.641 32.3295 188.22 32.2701 187.805 32.1819L187.688 32.4115C188.001 32.857 188.225 33.3603 188.347 33.8929C188.511 34.4684 188.597 35.064 188.603 35.6631C188.603 39.1195 187.525 41.6921 185.368 43.3808C183.212 45.0695 180.392 45.9213 176.909 45.9361C174.577 45.9361 173.411 46.4595 173.411 47.5063C173.411 48.1655 173.813 48.6173 174.611 48.8691C175.97 49.2382 177.351 49.5202 178.746 49.7135C180.121 49.869 181.168 50.0172 181.9 50.1727C184.227 50.5527 186.44 51.4563 188.376 52.8169C189.981 54.0316 190.784 55.9548 190.784 58.5867C190.809 60.4826 190.157 62.324 188.947 63.7714C187.556 65.3735 185.763 66.5659 183.758 67.2229C181.259 68.0782 178.632 68.4892 175.994 68.4376C166.891 68.4376 162.342 65.7687 162.346 60.4309L162.368 60.3939ZM181.036 60.8976C181.456 60.7342 181.82 60.4488 182.08 60.0772C182.34 59.7055 182.486 59.2643 182.5 58.8089C182.5 57.9201 181.856 57.2683 180.575 56.8609C178.311 56.3059 175.996 55.9857 173.667 55.9055C172.822 56.1827 172.049 56.6485 171.406 57.2683C171.156 57.4908 170.953 57.7624 170.809 58.0667C170.666 58.371 170.585 58.7016 170.572 59.0385C170.596 59.4705 170.748 59.885 171.009 60.2275C171.271 60.57 171.628 60.8242 172.035 60.9568C173.492 61.5007 175.044 61.7376 176.594 61.653C178.094 61.7363 179.593 61.4834 180.985 60.9124L181.036 60.8976ZM179.324 38.6924C179.74 38.3093 180.064 37.8355 180.272 37.3068C180.48 36.778 180.566 36.2083 180.524 35.6408C180.57 35.0652 180.486 34.4866 180.278 33.9489C180.07 33.4111 179.744 32.9284 179.324 32.5374C178.423 31.8783 177.34 31.5235 176.228 31.5235C175.117 31.5235 174.034 31.8783 173.133 32.5374C172.724 32.9287 172.407 33.4081 172.205 33.9402C172.004 34.4722 171.923 35.0433 171.969 35.6112C171.928 36.1793 172.016 36.7494 172.225 37.2781C172.434 37.8069 172.76 38.2804 173.177 38.6627C174.078 39.3218 175.161 39.6766 176.272 39.6766C177.384 39.6766 178.467 39.3218 179.368 38.6627" fill="#222220"/>
<path d="M197.743 54.2687C196.367 52.7429 195.679 50.3752 195.679 47.1657V27.4862C195.679 26.2517 196.826 25.632 199.119 25.6271H200.729C203.017 25.6271 204.163 26.2468 204.168 27.4862V45.8843C204.094 46.8543 204.378 47.8175 204.966 48.5877C205.319 48.9162 205.737 49.1656 206.192 49.32C206.647 49.4744 207.13 49.5303 207.607 49.4839C208.607 49.495 209.576 49.1339 210.33 48.4692C211.103 47.8178 211.744 47.0204 212.218 46.1213V27.4862C212.218 26.2492 213.359 25.6271 215.657 25.6271H217.26C219.557 25.6271 220.706 26.2468 220.706 27.4862V45.8843C220.706 47.6693 220.75 49.0173 220.845 49.9506C220.94 50.8838 221.065 51.9059 221.218 53.0243C221.324 53.4409 221.383 53.8683 221.394 54.2983C221.394 54.9204 220.618 55.3871 219.067 55.6907C217.719 55.98 216.347 56.1363 214.969 56.1574C214.67 56.187 214.369 56.1225 214.107 55.9728C213.845 55.823 213.635 55.5952 213.505 55.3204C213.229 54.7389 213.028 54.1241 212.905 53.491C212.766 52.8318 212.686 52.3874 212.642 52.1578C211.656 53.4528 210.408 54.5208 208.983 55.2908C207.485 56.1373 205.796 56.5762 204.08 56.5647C201.211 56.5647 199.089 55.7994 197.714 54.2687" fill="#222220"/>
<path d="M228.997 55.4611C227.007 54.7303 226.012 53.7822 226.012 52.6169C226.105 51.5932 226.483 50.6172 227.102 49.8024C227.834 48.6988 228.478 48.1507 229.049 48.1507C229.501 48.2003 229.934 48.3577 230.315 48.6099C231.031 48.9304 231.764 49.2122 232.51 49.4543C233.263 49.68 234.045 49.7874 234.83 49.7728C235.697 49.8262 236.56 49.6034 237.296 49.1358C237.575 48.9316 237.8 48.66 237.949 48.3457C238.099 48.0315 238.169 47.6844 238.152 47.336C238.167 47.0315 238.121 46.7271 238.015 46.4417C237.909 46.1563 237.747 45.896 237.537 45.6769C237.143 45.2655 236.676 44.9315 236.162 44.6918C235.664 44.4548 234.698 44.0696 233.234 43.5289C231.464 42.8659 229.853 41.831 228.507 40.4922C227.302 39.2528 226.7 37.3567 226.7 34.8039C226.7 31.8412 227.636 29.5106 229.51 27.812C231.383 26.1134 233.925 25.2715 237.135 25.2863C239.119 25.2785 241.092 25.5732 242.989 26.1603C244.841 26.738 245.77 27.575 245.77 28.6564C245.695 29.6576 245.4 30.6293 244.906 31.5005C244.336 32.6634 243.801 33.2411 243.304 33.2411C242.73 33.0988 242.174 32.8952 241.643 32.6337C240.604 32.2096 239.492 32.0005 238.372 32.019C236.347 32.019 235.335 32.6979 235.335 34.0558C235.31 34.4452 235.387 34.8343 235.557 35.184C235.728 35.5338 235.987 35.8318 236.308 36.0482C237.294 36.6773 238.341 37.2034 239.433 37.6184C239.66 37.7295 240.025 37.8851 240.523 38.0776C240.954 38.2474 241.374 38.4428 241.782 38.6628C243.23 39.3206 244.489 40.3401 245.441 41.6254C246.401 43.1139 246.872 44.8715 246.787 46.6471C246.844 48.0001 246.607 49.3491 246.091 50.5985C245.575 51.8479 244.793 52.9669 243.801 53.8761C241.818 55.6685 239.059 56.5721 235.547 56.5721C233.321 56.596 231.109 56.2224 229.012 55.4685" fill="#222220"/>
<path d="M252.334 47.1583V32.5375H251.412C251.15 32.5577 250.888 32.5032 250.655 32.3801C250.422 32.257 250.228 32.0704 250.095 31.8413C249.781 31.1459 249.642 30.3823 249.692 29.6193V28.6416C249.642 27.8786 249.781 27.115 250.095 26.4196C250.228 26.1905 250.422 26.0039 250.655 25.8808C250.888 25.7578 251.15 25.7032 251.412 25.7234H252.334L253.066 20.2128C253.256 18.9734 254.288 18.3538 256.161 18.3538H257.94C259.852 18.3538 260.806 18.9734 260.801 20.2128V25.7234H263.611C263.874 25.7027 264.137 25.7569 264.371 25.88C264.606 26.003 264.801 26.19 264.935 26.4196C265.247 27.1158 265.382 27.8793 265.331 28.6416V29.6267C265.382 30.389 265.247 31.1525 264.935 31.8487C264.801 32.0784 264.606 32.2653 264.371 32.3884C264.137 32.5114 263.874 32.5656 263.611 32.5449H260.801V47.2842C260.742 47.9616 260.915 48.639 261.291 49.2025C261.496 49.4113 261.744 49.5715 262.017 49.6714C262.291 49.7713 262.583 49.8085 262.872 49.7802C263.132 49.7713 263.39 49.7315 263.64 49.6617C263.894 49.5977 264.154 49.5605 264.416 49.5506C264.76 49.5506 265.067 49.8395 265.331 50.4172C265.611 51.0312 265.825 51.6745 265.967 52.3355C266.079 52.7928 266.155 53.2585 266.194 53.728C266.194 55.6241 264.36 56.5722 260.691 56.5722C255.11 56.5722 252.319 53.4391 252.319 47.1731" fill="#222220"/>
<path d="M272.956 54.2687C271.58 52.7429 270.892 50.3752 270.892 47.1657V27.4862C270.892 26.2492 272.034 25.6271 274.331 25.6271H275.934C278.232 25.6271 279.373 26.2492 279.373 27.4862V45.8843C279.302 46.8552 279.589 47.8185 280.178 48.5877C280.53 48.9167 280.947 49.1667 281.401 49.3211C281.855 49.4756 282.336 49.5311 282.813 49.4839C283.814 49.4934 284.785 49.1326 285.542 48.4692C286.308 47.8175 286.94 47.0197 287.401 46.1213V27.4862C287.401 26.2517 288.548 25.632 290.841 25.6271H292.45C294.739 25.6271 295.885 26.2468 295.89 27.4862V45.8843C295.87 47.2414 295.919 48.5985 296.036 49.9506C296.131 50.8764 296.256 51.9059 296.409 53.0243C296.51 53.4418 296.566 53.8688 296.578 54.2983C296.578 54.9204 295.802 55.3871 294.258 55.6907C292.908 55.9797 291.533 56.136 290.153 56.1574C289.859 56.1792 289.566 56.111 289.312 55.9617C289.057 55.8124 288.853 55.5889 288.726 55.3204C288.447 54.7392 288.243 54.1244 288.118 53.491C287.987 52.8318 287.899 52.3874 287.862 52.1578C286.877 53.4538 285.629 54.5219 284.203 55.2908C282.706 56.1389 281.016 56.5779 279.3 56.5647C276.437 56.5647 274.317 55.7994 272.941 54.2687" fill="#222220"/>
<path d="M304.225 55.4611C302.234 54.7204 301.247 53.7798 301.247 52.6169C301.336 51.5923 301.714 50.6153 302.337 49.8024C303.069 48.6988 303.713 48.1507 304.283 48.1507C304.733 48.2007 305.164 48.3581 305.542 48.6099C306.259 48.9292 306.992 49.211 307.738 49.4543C308.49 49.68 309.272 49.7874 310.057 49.7728C310.925 49.8287 311.788 49.6058 312.523 49.1358C312.805 48.9334 313.032 48.6624 313.183 48.3478C313.334 48.0332 313.404 47.6852 313.387 47.336C313.4 47.0272 313.351 46.7189 313.243 46.4299C313.135 46.1409 312.97 45.8771 312.758 45.6547C312.36 45.2465 311.894 44.913 311.382 44.6696C310.884 44.4326 309.918 44.0474 308.455 43.5067C306.691 42.8492 305.085 41.8219 303.742 40.4922C302.537 39.2528 301.934 37.3567 301.934 34.8039C301.934 31.8412 302.871 29.5106 304.745 27.812C306.618 26.1134 309.16 25.2715 312.37 25.2863C314.341 25.2805 316.302 25.5751 318.187 26.1603C320.046 26.738 320.968 27.575 320.968 28.6564C320.893 29.6565 320.6 30.6276 320.112 31.5005C319.534 32.6634 319 33.2411 318.502 33.2411C317.929 33.0976 317.372 32.894 316.841 32.6337C315.802 32.209 314.69 31.9999 313.57 32.019C311.545 32.019 310.533 32.6979 310.533 34.0558C310.511 34.448 310.592 34.839 310.769 35.1889C310.945 35.5389 311.209 35.8354 311.535 36.0482C312.527 36.6644 313.576 37.1804 314.667 37.5888C314.902 37.6999 315.26 37.8554 315.758 38.048C316.191 38.2164 316.614 38.4118 317.024 38.6331C318.471 39.2921 319.73 40.3114 320.683 41.5958C321.635 43.0943 322.092 44.8611 321.985 46.6397C322.043 47.992 321.805 49.3404 321.291 50.5896C320.776 51.8387 319.996 52.9582 319.007 53.8687C317.017 55.6611 314.263 56.5597 310.745 56.5647C308.52 56.588 306.308 56.2144 304.21 55.4611" fill="#222220"/>
<path d="M44.8365 38.6925C44.8365 40.1738 44.7413 41.6551 44.7121 43.1365C44.6389 50.2765 31.1521 53.8243 29.169 46.2769C28.9483 45.314 29.0164 44.3064 29.3644 43.3828C29.7124 42.4593 30.3247 41.6618 31.1228 41.0922C34.6208 38.7073 38.9602 38.6776 42.8899 37.3148C43.1095 37.2371 43.3442 37.2135 43.5746 37.2459C43.805 37.2784 44.0244 37.3659 44.2147 37.5013C44.405 37.6367 44.5606 37.816 44.6688 38.0245C44.7769 38.2329 44.8344 38.4644 44.8365 38.6999" fill="#6694FB"/>
<path d="M36.5893 0C29.3526 0 22.2784 2.17197 16.2614 6.24124C10.2443 10.3105 5.55456 16.0943 2.78521 22.8613C0.0158535 29.6282 -0.708736 37.0744 0.703069 44.2582C2.11487 51.4419 5.59966 58.0406 10.7168 63.2198C15.8339 68.399 22.3534 71.9261 29.4511 73.3551C36.5487 74.784 43.9056 74.0506 50.5914 71.2477C57.2772 68.4447 62.9916 63.698 67.0121 57.6079C71.0326 51.5178 73.1785 44.3578 73.1785 37.0333C73.1785 27.2115 69.3236 17.7919 62.4618 10.8468C55.6 3.90171 46.2933 0 36.5893 0ZM30.1276 57.2461C17.5629 54.639 16.0261 37.0704 29.4617 34.0262C33.9548 32.9597 38.8139 32.7671 42.868 30.3229C45.4146 28.8416 44.7194 24.6568 41.924 23.8865C40.0083 23.3328 38.0001 23.1865 36.0258 23.4569C32.6303 23.731 30.6472 25.5826 30.1715 30.397C30.0541 31.3563 29.5898 32.2377 28.8681 32.871C28.1465 33.5042 27.2187 33.8446 26.2638 33.8262H26.1833C25.6623 33.8246 25.147 33.7169 24.668 33.5097C24.1889 33.3024 23.756 32.9997 23.3948 32.6197C23.0337 32.2396 22.7517 31.79 22.5657 31.2974C22.3797 30.8049 22.2935 30.2795 22.3121 29.7526C22.4512 24.9753 23.5854 20.1239 28.4665 18.2204C33.6617 15.9726 39.4521 15.5553 44.9097 17.0353C54.0277 19.3314 52.9593 33.33 53.0837 42.055C52.8203 53.5724 40.2628 59.831 30.091 57.2461" fill="#6694FB"/>
</g>
<defs>
<clipPath id="clip0">
<rect width="322" height="74" fill="white"/>
</clipPath>
</defs>
</svg>
